<svg id="Layer_1" data-name="Layer 1" xmlns="http://www.w3.org/2000/svg" viewBox="0 0 1024 354"><defs><style>.cls-1{fill:#ed4242;}.cls-2,.cls-4{fill:#fff;}.cls-2{fill-rule:evenodd;}.cls-3{fill:#4267b2;}</style></defs><title>FBLive_Hex-RGB-1024</title><rect id="Blue" class="cls-1" x="390.96" y="-0.23" width="633.04" height="353.87" rx="19.53" ry="19.53"/><path class="cls-2" d="M924.94,228.48h-70.2V186.53H921.1V164.72H854.74V124.94h70.2V101.78h-97V251.64h97ZM750.27,251.64l51.82-149.86H773.53l-37.39,118.6h-1.76l-37.7-118.6h-29.6l52.34,149.86Zm-109,0V101.78H614.43V251.64Zm-55.66-23.47H516.81V101.78H490V251.64h95.54Z"/><path class="cls-3" d="M334.34-.23H19.53A19.53,19.53,0,0,0,0,19.31V334.12a19.53,19.53,0,0,0,19.53,19.53H189v-137H142.9V163.2H189V123.82c0-45.71,27.92-70.6,68.69-70.6a377.82,377.82,0,0,1,41.21,2.11v47.76l-28.28,0c-22.17,0-26.47,10.53-26.47,26V163.2h52.89l-6.89,53.41h-46v137h90.18a19.53,19.53,0,0,0,19.53-19.53V19.31A19.53,19.53,0,0,0,334.34-.23Z"/><path id="f" class="cls-4" d="M244.16,353.65v-137h46l6.89-53.41H244.16V129.11c0-15.47,4.3-26,26.47-26l28.28,0V55.33a377.82,377.82,0,0,0-41.21-2.11c-40.77,0-68.69,24.89-68.69,70.6V163.2H142.9v53.41H189v137Z"/></svg>