<?xml version="1.0" standalone="no"?>
<!DOCTYPE svg PUBLIC "-//W3C//DTD SVG 20010904//EN"
 "http://www.w3.org/TR/2001/REC-SVG-20010904/DTD/svg10.dtd">
<svg version="1.0" xmlns="http://www.w3.org/2000/svg"
 width="500.000000pt" height="205.000000pt" viewBox="0 0 500.000000 205.000000"
 preserveAspectRatio="xMidYMid meet">

<g transform="translate(0.000000,205.000000) scale(0.100000,-0.100000)"
fill="#000000" stroke="none">
<path d="M690 1610 c-162 -34 -273 -150 -326 -340 -27 -94 -27 -389 -1 -475
71 -231 224 -334 494 -335 113 0 178 13 266 52 l67 31 -2 291 -3 291 -195 0
-195 0 0 -105 0 -105 78 -3 78 -3 -3 -107 -3 -107 -80 -3 c-95 -4 -144 9 -189
48 -68 60 -99 198 -84 376 11 141 70 234 167 262 54 17 206 15 275 -3 33 -9
61 -13 64 -10 4 3 16 47 28 98 26 106 26 106 -61 133 -59 19 -307 28 -375 14z"/>
<path d="M2250 1030 l0 -551 118 3 117 3 3 233 2 232 155 0 155 0 2 -232 3
-233 114 -3 c85 -2 117 1 123 10 10 17 10 1059 0 1076 -6 9 -38 12 -123 10
l-114 -3 -3 -202 -2 -203 -155 0 -155 0 -2 203 -3 202 -117 3 -118 3 0 -551z"/>
<path d="M3945 1568 c-3 -7 -4 -254 -3 -548 l3 -535 85 0 c81 0 85 1 88 22 4
28 6 28 46 4 48 -29 133 -51 201 -51 214 0 306 140 292 448 -6 135 -15 172
-60 239 -47 70 -116 103 -217 103 -68 0 -125 -11 -182 -35 -17 -7 -18 6 -18
179 l0 186 -115 0 c-83 0 -117 -3 -120 -12z m433 -541 c30 -28 42 -77 42 -172
0 -92 -13 -148 -41 -176 -24 -24 -112 -26 -164 -5 l-35 15 0 170 0 169 33 11
c17 5 41 12 52 14 35 9 89 -4 113 -26z"/>
<path d="M1386 1550 c-38 -12 -66 -38 -82 -77 -18 -42 -18 -67 3 -110 43 -92
180 -98 233 -10 62 101 -39 231 -154 197z"/>
<path d="M1747 1444 c-4 -4 -7 -55 -7 -114 l0 -107 -60 -13 -60 -13 0 -83 0
-84 59 0 59 0 4 -202 c3 -186 5 -207 25 -244 55 -103 181 -146 333 -113 l50
11 0 89 0 89 -59 0 c-44 0 -65 5 -85 21 l-26 20 0 164 0 164 83 3 82 3 3 98 3
97 -85 0 -85 0 -3 108 -3 107 -111 3 c-60 1 -113 -1 -117 -4z"/>
<path d="M1307 1224 c-9 -9 -9 -706 -1 -728 5 -13 25 -16 120 -16 110 0 114 1
119 23 3 12 4 180 3 372 l-3 350 -116 3 c-63 1 -118 -1 -122 -4z"/>
<path d="M3144 1216 c-3 -8 -4 -144 -2 -303 3 -275 4 -290 25 -330 29 -53 84
-98 139 -112 97 -25 232 -8 326 40 l37 19 3 -23 c3 -21 8 -22 83 -22 l80 0 0
370 0 370 -117 3 -118 3 0 -271 0 -271 -35 -15 c-19 -7 -59 -14 -88 -14 -89 0
-87 -5 -87 287 0 138 -3 258 -6 267 -9 22 -232 24 -240 2z"/>
</g>
</svg>
